<svg xmlns="http://www.w3.org/2000/svg" width="800" height="600" viewBox="0 0 800 600">
  <defs>
    <linearGradient id="bg2" x1="0%" y1="0%" x2="100%" y2="100%">
      <stop offset="0%" style="stop-color:#071a2e"/>
      <stop offset="100%" style="stop-color:#0c2a45"/>
    </linearGradient>
    <filter id="glow2"><feGaussianBlur stdDeviation="4" result="blur"/><feComposite in="SourceGraphic" in2="blur" operator="over"/></filter>
    <filter id="softbg"><feGaussianBlur stdDeviation="30"/></filter>
  </defs>
  <rect width="800" height="600" fill="url(#bg2)"/>
  <ellipse cx="400" cy="270" rx="200" ry="160" fill="#06b6d4" opacity="0.07" filter="url(#softbg)"/>
  <text x="130" y="110" font-family="serif" font-size="22" fill="#a5f3fc" opacity="0.18">&#10052;</text>
  <text x="640" y="140" font-family="serif" font-size="14" fill="#67e8f9" opacity="0.13">&#10052;</text>
  <text x="90"  y="430" font-family="serif" font-size="11" fill="#67e8f9" opacity="0.10">&#10052;</text>
  <text x="695" y="390" font-family="serif" font-size="18" fill="#a5f3fc" opacity="0.14">&#10052;</text>
  <text x="580" y="90"  font-family="serif" font-size="16" fill="#a5f3fc" opacity="0.11">&#10052;</text>
  <text x="65"  y="250" font-family="serif" font-size="15" fill="#a5f3fc" opacity="0.12">&#10052;</text>
  <rect x="290" y="120" width="220" height="290" rx="18" fill="#0a2540" stroke="#22d3ee" stroke-width="2"/>
  <rect x="304" y="134" width="192" height="115" rx="8" fill="#071e38" stroke="#1a6080" stroke-width="1"/>
  <rect x="304" y="260" width="192" height="136" rx="8" fill="#071e38" stroke="#1a6080" stroke-width="1"/>
  <line x1="304" y1="255" x2="496" y2="255" stroke="#22d3ee" stroke-width="2" opacity="0.5"/>
  <rect x="484" y="170" width="7" height="34" rx="3.5" fill="#67e8f9" opacity="0.7"/>
  <rect x="484" y="280" width="7" height="34" rx="3.5" fill="#67e8f9" opacity="0.7"/>
  <rect x="316" y="148" width="44" height="32" rx="5" fill="#0e4a6e" stroke="#22d3ee" stroke-width="1"/>
  <rect x="368" y="143" width="38" height="37" rx="5" fill="#0c3e5e" stroke="#06b6d4" stroke-width="1"/>
  <rect x="414" y="150" width="50" height="30" rx="5" fill="#0e4a6e" stroke="#22d3ee" stroke-width="1"/>
  <line x1="320" y1="158" x2="354" y2="158" stroke="#22d3ee" stroke-width="1" opacity="0.4"/>
  <line x1="372" y1="155" x2="400" y2="155" stroke="#06b6d4" stroke-width="1" opacity="0.4"/>
  <line x1="418" y1="160" x2="456" y2="160" stroke="#22d3ee" stroke-width="1" opacity="0.4"/>
  <rect x="316" y="272" width="50" height="38" rx="5" fill="#0c3e5e" stroke="#06b6d4" stroke-width="1"/>
  <rect x="374" y="268" width="42" height="44" rx="5" fill="#0e4a6e" stroke="#22d3ee" stroke-width="1"/>
  <rect x="424" y="274" width="56" height="36" rx="5" fill="#0c3e5e" stroke="#06b6d4" stroke-width="1"/>
  <rect x="324" y="318" width="38" height="26" rx="4" fill="#0a3050" stroke="#22d3ee" stroke-width="0.8"/>
  <rect x="370" y="320" width="32" height="24" rx="4" fill="#0a3050" stroke="#06b6d4" stroke-width="0.8"/>
  <path d="M338 167 Q355 175 338 183 Q322 191 338 199" fill="none" stroke="#a5f3fc" stroke-width="1.5" opacity="0.3"/>
  <path d="M378 163 Q395 171 378 179 Q362 187 378 195" fill="none" stroke="#a5f3fc" stroke-width="1.5" opacity="0.25"/>
  <rect x="358" y="430" width="84" height="40" rx="20" fill="#071e38" stroke="#22d3ee" stroke-width="1.5"/>
  <text x="400" y="456" font-family="system-ui,sans-serif" font-size="18" fill="#67e8f9" text-anchor="middle" font-weight="700">-18&#176;C</text>
  <text x="400" y="508" font-family="system-ui,sans-serif" font-size="34" fill="#ffffff" text-anchor="middle" font-weight="700" letter-spacing="2">Freezely</text>
  <text x="400" y="535" font-family="system-ui,sans-serif" font-size="13" fill="#67e8f9" text-anchor="middle" opacity="0.7" letter-spacing="3">SMART FREEZER TRACKER</text>
</svg>
